<svg xmlns="http://www.w3.org/2000/svg" viewBox="0 0 512 512">
  <defs>
    <linearGradient id="bg" x1="0" y1="0" x2="0" y2="1">
      <stop offset="0%" stop-color="#77D9BE"/>
      <stop offset="68%" stop-color="#5EC9A9"/>
      <stop offset="100%" stop-color="#0E4A45"/>
    </linearGradient>
    <linearGradient id="sea" x1="0" y1="0" x2="0" y2="1">
      <stop offset="0%" stop-color="#0B4E49"/>
      <stop offset="100%" stop-color="#063936"/>
    </linearGradient>
    <filter id="shadow" x="-20%" y="-20%" width="140%" height="140%">
      <feDropShadow dx="0" dy="8" stdDeviation="10" flood-color="#062D2A" flood-opacity=".22"/>
    </filter>
  </defs>

  <rect x="16" y="16" width="480" height="480" rx="112" fill="url(#bg)" filter="url(#shadow)"/>

  <circle cx="382" cy="186" r="62" fill="#FFD36B"/>

  <path d="M16 340 Q130 325 256 342 T496 340 V430 Q496 496 430 496 H82 Q16 496 16 430 Z" fill="url(#sea)"/>

  <g fill="none" stroke="#66D79D" stroke-width="13" stroke-linecap="round">
    <path d="M78 386 Q110 363 142 386 T206 386"/>
    <path d="M232 386 Q264 363 296 386 T360 386"/>
    <path d="M76 430 Q108 407 140 430 T204 430"/>
    <path d="M230 430 Q262 407 294 430 T358 430"/>
    <path d="M374 430 Q406 407 438 430"/>
  </g>

  <g fill="#083F3C">
    <path d="M195 345 C205 260 205 189 183 126 C170 90 185 75 206 98 C236 132 245 191 236 258 C229 307 226 328 230 349 Z"/>
    <path d="M196 130 C142 116 91 131 61 171 C118 170 161 154 196 130 Z"/>
    <path d="M201 129 C164 89 123 66 80 70 C118 111 157 129 201 129 Z"/>
    <path d="M204 127 C191 79 193 49 214 29 C231 72 227 101 204 127 Z"/>
    <path d="M207 128 C240 84 277 62 322 65 C290 103 253 124 207 128 Z"/>
    <path d="M210 132 C258 120 301 129 339 161 C292 165 250 154 210 132 Z"/>
    <path d="M198 137 C154 143 120 166 97 204 C143 195 178 173 198 137 Z"/>
  </g>
</svg>